<mxfile host="app.diagrams.net" modified="2023-01-13T00:00:26.143Z" agent="5.0 (Windows NT 10.0; Win64; x64) AppleWebKit/537.36 (KHTML, like Gecko) Chrome/109.0.0.0 Safari/537.36" etag="W1tiH6haI0xT_59HqLFh" version="20.8.5" type="github">
  <diagram id="C5RBs43oDa-KdzZeNtuy" name="Page-1">
    <mxGraphModel dx="1195" dy="637" grid="1" gridSize="10" guides="1" tooltips="1" connect="1" arrows="1" fold="1" page="1" pageScale="1" pageWidth="827" pageHeight="1169" math="0" shadow="0">
      <root>
        <mxCell id="WIyWlLk6GJQsqaUBKTNV-0" />
        <mxCell id="WIyWlLk6GJQsqaUBKTNV-1" parent="WIyWlLk6GJQsqaUBKTNV-0" />
        <mxCell id="WIyWlLk6GJQsqaUBKTNV-2" value="" style="rounded=0;html=1;jettySize=auto;orthogonalLoop=1;fontSize=11;endArrow=block;endFill=0;endSize=8;strokeWidth=1;shadow=0;labelBackgroundColor=none;edgeStyle=orthogonalEdgeStyle;" parent="WIyWlLk6GJQsqaUBKTNV-1" source="WIyWlLk6GJQsqaUBKTNV-3" edge="1">
          <mxGeometry relative="1" as="geometry">
            <mxPoint x="414" y="90" as="targetPoint" />
            <Array as="points">
              <mxPoint x="414" y="90" />
              <mxPoint x="414" y="90" />
            </Array>
          </mxGeometry>
        </mxCell>
        <mxCell id="WIyWlLk6GJQsqaUBKTNV-3" value="Start" style="rounded=1;whiteSpace=wrap;html=1;fontSize=12;glass=0;strokeWidth=1;shadow=0;" parent="WIyWlLk6GJQsqaUBKTNV-1" vertex="1">
          <mxGeometry x="354" y="10" width="120" height="40" as="geometry" />
        </mxCell>
        <mxCell id="TfzfI0lXpXgf4KC8DqUi-6" style="edgeStyle=orthogonalEdgeStyle;rounded=0;orthogonalLoop=1;jettySize=auto;html=1;" edge="1" parent="WIyWlLk6GJQsqaUBKTNV-1" source="WIyWlLk6GJQsqaUBKTNV-11" target="TfzfI0lXpXgf4KC8DqUi-5">
          <mxGeometry relative="1" as="geometry" />
        </mxCell>
        <mxCell id="WIyWlLk6GJQsqaUBKTNV-11" value="Ask the user to guess a number between 1 - 100" style="rounded=1;whiteSpace=wrap;html=1;fontSize=12;glass=0;strokeWidth=1;shadow=0;" parent="WIyWlLk6GJQsqaUBKTNV-1" vertex="1">
          <mxGeometry x="351.5" y="530" width="120" height="50" as="geometry" />
        </mxCell>
        <mxCell id="TfzfI0lXpXgf4KC8DqUi-18" style="edgeStyle=orthogonalEdgeStyle;rounded=0;orthogonalLoop=1;jettySize=auto;html=1;entryX=0.5;entryY=0;entryDx=0;entryDy=0;fontSize=13;" edge="1" parent="WIyWlLk6GJQsqaUBKTNV-1" source="TfzfI0lXpXgf4KC8DqUi-0" target="TfzfI0lXpXgf4KC8DqUi-9">
          <mxGeometry relative="1" as="geometry" />
        </mxCell>
        <mxCell id="TfzfI0lXpXgf4KC8DqUi-0" value="Generate random number for user to guess" style="rounded=1;whiteSpace=wrap;html=1;fontSize=12;glass=0;strokeWidth=1;shadow=0;" vertex="1" parent="WIyWlLk6GJQsqaUBKTNV-1">
          <mxGeometry x="353" y="90" width="120" height="50" as="geometry" />
        </mxCell>
        <mxCell id="TfzfI0lXpXgf4KC8DqUi-19" style="edgeStyle=orthogonalEdgeStyle;rounded=0;orthogonalLoop=1;jettySize=auto;html=1;fontSize=13;entryX=0.5;entryY=0;entryDx=0;entryDy=0;" edge="1" parent="WIyWlLk6GJQsqaUBKTNV-1" source="TfzfI0lXpXgf4KC8DqUi-5" target="TfzfI0lXpXgf4KC8DqUi-20">
          <mxGeometry relative="1" as="geometry">
            <mxPoint x="412" y="820" as="targetPoint" />
          </mxGeometry>
        </mxCell>
        <mxCell id="TfzfI0lXpXgf4KC8DqUi-21" style="edgeStyle=orthogonalEdgeStyle;rounded=0;orthogonalLoop=1;jettySize=auto;html=1;fontSize=13;" edge="1" parent="WIyWlLk6GJQsqaUBKTNV-1" source="TfzfI0lXpXgf4KC8DqUi-5">
          <mxGeometry relative="1" as="geometry">
            <mxPoint x="700" y="700" as="targetPoint" />
          </mxGeometry>
        </mxCell>
        <mxCell id="TfzfI0lXpXgf4KC8DqUi-5" value="&lt;font style=&quot;font-size: 13px;&quot;&gt;Is user&#39;s guess&lt;br&gt;&amp;nbsp;higher or lower &lt;br&gt;than the random number?&lt;/font&gt;" style="rhombus;whiteSpace=wrap;html=1;shadow=0;fontFamily=Helvetica;fontSize=12;align=center;strokeWidth=1;spacing=6;spacingTop=-4;movable=1;resizable=1;rotatable=1;deletable=1;editable=1;connectable=1;" vertex="1" parent="WIyWlLk6GJQsqaUBKTNV-1">
          <mxGeometry x="336.5" y="630" width="151" height="140" as="geometry" />
        </mxCell>
        <mxCell id="TfzfI0lXpXgf4KC8DqUi-10" style="edgeStyle=orthogonalEdgeStyle;rounded=0;orthogonalLoop=1;jettySize=auto;html=1;fontSize=13;" edge="1" parent="WIyWlLk6GJQsqaUBKTNV-1" source="TfzfI0lXpXgf4KC8DqUi-9">
          <mxGeometry relative="1" as="geometry">
            <mxPoint x="308" y="340" as="targetPoint" />
          </mxGeometry>
        </mxCell>
        <mxCell id="TfzfI0lXpXgf4KC8DqUi-11" style="edgeStyle=orthogonalEdgeStyle;rounded=0;orthogonalLoop=1;jettySize=auto;html=1;exitX=1;exitY=0.5;exitDx=0;exitDy=0;fontSize=13;" edge="1" parent="WIyWlLk6GJQsqaUBKTNV-1" source="TfzfI0lXpXgf4KC8DqUi-9">
          <mxGeometry relative="1" as="geometry">
            <mxPoint x="518" y="340" as="targetPoint" />
          </mxGeometry>
        </mxCell>
        <mxCell id="TfzfI0lXpXgf4KC8DqUi-9" value="&lt;span style=&quot;font-size: 13px;&quot;&gt;Does the user &lt;br&gt;want to play easy or hard?&lt;/span&gt;" style="rhombus;whiteSpace=wrap;html=1;shadow=0;fontFamily=Helvetica;fontSize=12;align=center;strokeWidth=1;spacing=6;spacingTop=-4;movable=1;resizable=1;rotatable=1;deletable=1;editable=1;connectable=1;" vertex="1" parent="WIyWlLk6GJQsqaUBKTNV-1">
          <mxGeometry x="342" y="180" width="140" height="120" as="geometry" />
        </mxCell>
        <mxCell id="TfzfI0lXpXgf4KC8DqUi-12" value="Easy" style="text;strokeColor=none;align=center;fillColor=none;html=1;verticalAlign=middle;whiteSpace=wrap;rounded=0;fontSize=13;" vertex="1" parent="WIyWlLk6GJQsqaUBKTNV-1">
          <mxGeometry x="258" y="280" width="60" height="30" as="geometry" />
        </mxCell>
        <mxCell id="TfzfI0lXpXgf4KC8DqUi-13" value="Hard" style="text;strokeColor=none;align=center;fillColor=none;html=1;verticalAlign=middle;whiteSpace=wrap;rounded=0;fontSize=13;" vertex="1" parent="WIyWlLk6GJQsqaUBKTNV-1">
          <mxGeometry x="518" y="280" width="60" height="30" as="geometry" />
        </mxCell>
        <mxCell id="TfzfI0lXpXgf4KC8DqUi-16" style="edgeStyle=orthogonalEdgeStyle;rounded=0;orthogonalLoop=1;jettySize=auto;html=1;fontSize=13;" edge="1" parent="WIyWlLk6GJQsqaUBKTNV-1" source="TfzfI0lXpXgf4KC8DqUi-14">
          <mxGeometry relative="1" as="geometry">
            <mxPoint x="412" y="390" as="targetPoint" />
            <Array as="points">
              <mxPoint x="409" y="360" />
              <mxPoint x="409" y="370" />
              <mxPoint x="412" y="370" />
            </Array>
          </mxGeometry>
        </mxCell>
        <mxCell id="TfzfI0lXpXgf4KC8DqUi-14" value="User begins with 5 attempts" style="rounded=1;whiteSpace=wrap;html=1;fontSize=12;glass=0;strokeWidth=1;shadow=0;" vertex="1" parent="WIyWlLk6GJQsqaUBKTNV-1">
          <mxGeometry x="248" y="340" width="120" height="40" as="geometry" />
        </mxCell>
        <mxCell id="TfzfI0lXpXgf4KC8DqUi-17" style="edgeStyle=orthogonalEdgeStyle;rounded=0;orthogonalLoop=1;jettySize=auto;html=1;fontSize=13;" edge="1" parent="WIyWlLk6GJQsqaUBKTNV-1" source="TfzfI0lXpXgf4KC8DqUi-15">
          <mxGeometry relative="1" as="geometry">
            <mxPoint x="410" y="390" as="targetPoint" />
            <Array as="points">
              <mxPoint x="410" y="360" />
            </Array>
          </mxGeometry>
        </mxCell>
        <mxCell id="TfzfI0lXpXgf4KC8DqUi-15" value="User begins with 10 attempts" style="rounded=1;whiteSpace=wrap;html=1;fontSize=12;glass=0;strokeWidth=1;shadow=0;" vertex="1" parent="WIyWlLk6GJQsqaUBKTNV-1">
          <mxGeometry x="458" y="340" width="120" height="40" as="geometry" />
        </mxCell>
        <mxCell id="TfzfI0lXpXgf4KC8DqUi-20" value="Win and display answer" style="rounded=1;whiteSpace=wrap;html=1;fontSize=13;" vertex="1" parent="WIyWlLk6GJQsqaUBKTNV-1">
          <mxGeometry x="351.5" y="850" width="120" height="60" as="geometry" />
        </mxCell>
        <mxCell id="TfzfI0lXpXgf4KC8DqUi-22" value="User guess equal to answer&amp;nbsp;" style="text;strokeColor=none;align=center;fillColor=none;html=1;verticalAlign=middle;whiteSpace=wrap;rounded=0;fontSize=13;" vertex="1" parent="WIyWlLk6GJQsqaUBKTNV-1">
          <mxGeometry x="270" y="810" width="142" height="30" as="geometry" />
        </mxCell>
        <mxCell id="TfzfI0lXpXgf4KC8DqUi-23" style="edgeStyle=orthogonalEdgeStyle;rounded=0;orthogonalLoop=1;jettySize=auto;html=1;exitX=0.5;exitY=1;exitDx=0;exitDy=0;fontSize=13;" edge="1" parent="WIyWlLk6GJQsqaUBKTNV-1" source="TfzfI0lXpXgf4KC8DqUi-22" target="TfzfI0lXpXgf4KC8DqUi-22">
          <mxGeometry relative="1" as="geometry" />
        </mxCell>
        <mxCell id="TfzfI0lXpXgf4KC8DqUi-25" value="Lower" style="text;strokeColor=none;align=center;fillColor=none;html=1;verticalAlign=middle;whiteSpace=wrap;rounded=0;fontSize=13;" vertex="1" parent="WIyWlLk6GJQsqaUBKTNV-1">
          <mxGeometry x="630" y="670" width="60" height="30" as="geometry" />
        </mxCell>
        <mxCell id="TfzfI0lXpXgf4KC8DqUi-27" style="edgeStyle=orthogonalEdgeStyle;rounded=0;orthogonalLoop=1;jettySize=auto;html=1;entryX=1;entryY=0.5;entryDx=0;entryDy=0;fontSize=11;" edge="1" parent="WIyWlLk6GJQsqaUBKTNV-1" source="TfzfI0lXpXgf4KC8DqUi-26" target="TfzfI0lXpXgf4KC8DqUi-29">
          <mxGeometry relative="1" as="geometry">
            <Array as="points">
              <mxPoint x="760" y="435" />
            </Array>
          </mxGeometry>
        </mxCell>
        <mxCell id="TfzfI0lXpXgf4KC8DqUi-26" value="&lt;font style=&quot;font-size: 11px;&quot;&gt;Tell user that the guess is too low and subtract an attempt&lt;/font&gt;" style="rounded=1;whiteSpace=wrap;html=1;fontSize=13;" vertex="1" parent="WIyWlLk6GJQsqaUBKTNV-1">
          <mxGeometry x="700" y="670" width="100" height="60" as="geometry" />
        </mxCell>
        <mxCell id="TfzfI0lXpXgf4KC8DqUi-30" style="edgeStyle=orthogonalEdgeStyle;rounded=0;orthogonalLoop=1;jettySize=auto;html=1;entryX=0.5;entryY=0;entryDx=0;entryDy=0;fontSize=11;" edge="1" parent="WIyWlLk6GJQsqaUBKTNV-1" source="TfzfI0lXpXgf4KC8DqUi-29" target="WIyWlLk6GJQsqaUBKTNV-11">
          <mxGeometry relative="1" as="geometry" />
        </mxCell>
        <mxCell id="TfzfI0lXpXgf4KC8DqUi-33" style="edgeStyle=orthogonalEdgeStyle;rounded=0;orthogonalLoop=1;jettySize=auto;html=1;fontSize=11;entryX=1;entryY=0.5;entryDx=0;entryDy=0;" edge="1" parent="WIyWlLk6GJQsqaUBKTNV-1" source="TfzfI0lXpXgf4KC8DqUi-29" target="TfzfI0lXpXgf4KC8DqUi-35">
          <mxGeometry relative="1" as="geometry">
            <mxPoint x="310" y="435" as="targetPoint" />
          </mxGeometry>
        </mxCell>
        <mxCell id="TfzfI0lXpXgf4KC8DqUi-29" value="Is attempts&lt;br&gt;&amp;nbsp;left greater than zero?" style="rhombus;whiteSpace=wrap;html=1;fontSize=11;" vertex="1" parent="WIyWlLk6GJQsqaUBKTNV-1">
          <mxGeometry x="366.5" y="390" width="90" height="90" as="geometry" />
        </mxCell>
        <mxCell id="TfzfI0lXpXgf4KC8DqUi-31" value="Yes" style="text;strokeColor=none;align=center;fillColor=none;html=1;verticalAlign=middle;whiteSpace=wrap;rounded=0;fontSize=11;" vertex="1" parent="WIyWlLk6GJQsqaUBKTNV-1">
          <mxGeometry x="368" y="490" width="60" height="30" as="geometry" />
        </mxCell>
        <mxCell id="TfzfI0lXpXgf4KC8DqUi-32" value="No" style="text;strokeColor=none;align=center;fillColor=none;html=1;verticalAlign=middle;whiteSpace=wrap;rounded=0;fontSize=11;" vertex="1" parent="WIyWlLk6GJQsqaUBKTNV-1">
          <mxGeometry x="300" y="405" width="78" height="25" as="geometry" />
        </mxCell>
        <mxCell id="TfzfI0lXpXgf4KC8DqUi-35" value="User loses" style="rounded=1;whiteSpace=wrap;html=1;fontSize=11;" vertex="1" parent="WIyWlLk6GJQsqaUBKTNV-1">
          <mxGeometry x="30" y="405" width="120" height="60" as="geometry" />
        </mxCell>
        <mxCell id="TfzfI0lXpXgf4KC8DqUi-40" value="" style="endArrow=classic;html=1;rounded=0;fontSize=11;" edge="1" parent="WIyWlLk6GJQsqaUBKTNV-1">
          <mxGeometry width="50" height="50" relative="1" as="geometry">
            <mxPoint x="610" y="700" as="sourcePoint" />
            <mxPoint x="610" y="610" as="targetPoint" />
            <Array as="points">
              <mxPoint x="610" y="660" />
            </Array>
          </mxGeometry>
        </mxCell>
        <mxCell id="TfzfI0lXpXgf4KC8DqUi-41" value="Higher" style="text;strokeColor=none;align=center;fillColor=none;html=1;verticalAlign=middle;whiteSpace=wrap;rounded=0;fontSize=11;" vertex="1" parent="WIyWlLk6GJQsqaUBKTNV-1">
          <mxGeometry x="550" y="620" width="60" height="30" as="geometry" />
        </mxCell>
        <mxCell id="TfzfI0lXpXgf4KC8DqUi-43" style="edgeStyle=orthogonalEdgeStyle;rounded=0;orthogonalLoop=1;jettySize=auto;html=1;fontSize=11;" edge="1" parent="WIyWlLk6GJQsqaUBKTNV-1" source="TfzfI0lXpXgf4KC8DqUi-42">
          <mxGeometry relative="1" as="geometry">
            <mxPoint x="610" y="430" as="targetPoint" />
          </mxGeometry>
        </mxCell>
        <mxCell id="TfzfI0lXpXgf4KC8DqUi-42" value="&lt;font style=&quot;font-size: 11px;&quot;&gt;Tell user that the guess is too high and subtract an attempt&lt;/font&gt;" style="rounded=1;whiteSpace=wrap;html=1;fontSize=13;" vertex="1" parent="WIyWlLk6GJQsqaUBKTNV-1">
          <mxGeometry x="560" y="550" width="100" height="60" as="geometry" />
        </mxCell>
      </root>
    </mxGraphModel>
  </diagram>
</mxfile>
